<?xml version="1.0" encoding="UTF-8"?>
<svg version="1.1" xmlns="http://www.w3.org/2000/svg" width="289" height="69">
<path d="M0 0 C95.37 0 190.74 0 289 0 C289 22.77 289 45.54 289 69 C193.63 69 98.26 69 0 69 C0 46.23 0 23.46 0 0 Z " fill="#FCFCFC" transform="translate(0,0)"/>
<path d="M0 0 C3 0.25 3 0.25 5 2.25 C5.66 1.59 6.32 0.93 7 0.25 C10.625 0.125 10.625 0.125 14 0.25 C15.33517241 7.65413793 15.33517241 7.65413793 13.875 10.25 C11.46618158 11.53470316 9.69027121 11.4681301 7 11.25 C6.67 10.26 6.34 9.27 6 8.25 C5.34 8.25 4.68 8.25 4 8.25 C4 8.91 4 9.57 4 10.25 C1.69 10.58 -0.62 10.91 -3 11.25 C-5.30163882 7.79754176 -5.34490322 6.30261287 -5 2.25 C-3 0.25 -3 0.25 0 0 Z " fill="#525252" transform="translate(225,32.75)"/>
<path d="M0 0 C2.85602767 0.05002596 4.58662118 0.2081722 7.25 1.3125 C9.48555522 4.32563964 9.13446475 6.61042993 8.6875 10.25 C7.484375 12.45703125 7.484375 12.45703125 5.6875 14.25 C3.20703125 14.640625 3.20703125 14.640625 0.5 14.5 C-0.40105469 14.46390625 -1.30210937 14.4278125 -2.23046875 14.390625 C-2.91753906 14.34421875 -3.60460937 14.2978125 -4.3125 14.25 C-4.5078125 8.1953125 -4.5078125 8.1953125 -4.3125 6.25 C-2.3125 4.25 -2.3125 4.25 0.8125 4.125 C1.76125 4.16625 2.71 4.2075 3.6875 4.25 C3.3575 6.89 3.0275 9.53 2.6875 12.25 C3.6775 12.25 4.6675 12.25 5.6875 12.25 C5.708125 10.950625 5.72875 9.65125 5.75 8.3125 C5.76160156 7.58160156 5.77320313 6.85070313 5.78515625 6.09765625 C5.89311184 4.23267859 5.89311184 4.23267859 4.6875 3.25 C0.67092857 3.02081758 0.67092857 3.02081758 -3.3125 3.25 C-5.54444769 5.05885466 -5.54444769 5.05885466 -5.54296875 7.59765625 C-5.52878906 8.49355469 -5.51460937 9.38945313 -5.5 10.3125 C-5.49355469 11.21097656 -5.48710937 12.10945313 -5.48046875 13.03515625 C-5.55644743 15.22325599 -5.55644743 15.22325599 -4.3125 16.25 C-1.98432036 16.61760731 0.3493385 16.95241581 2.6875 17.25 C2.6875 17.58 2.6875 17.91 2.6875 18.25 C-5.49712594 18.86770762 -5.49712594 18.86770762 -8.375 16.6875 C-9.68734421 13.27540506 -9.75122489 10.88514907 -9.3125 7.25 C-5.20919548 0.10230826 -5.20919548 0.10230826 0 0 Z " fill="#686868" transform="translate(149.3125,27.75)"/>
<path d="M0 0 C3 0.25 3 0.25 5 2.25 C5.30078125 4.52734375 5.30078125 4.52734375 5.3125 7.1875 C5.32925781 8.06277344 5.34601563 8.93804687 5.36328125 9.83984375 C5 12.25 5 12.25 3.640625 14.04296875 C2 15.25 2 15.25 -0.5625 15.625 C-1.366875 15.50125 -2.17125 15.3775 -3 15.25 C-5.16721782 11.99917327 -5.27221018 10.95767847 -5.25 7.1875 C-5.25515625 6.30964844 -5.2603125 5.43179688 -5.265625 4.52734375 C-4.83383823 0.82540714 -3.60022647 0.30001887 0 0 Z " fill="#484848" transform="translate(120,28.75)"/>
<path d="M0 0 C1.134375 0.020625 2.26875 0.04125 3.4375 0.0625 C4.52706411 4.96553848 4.62873069 9.16521826 3.4375 14.0625 C2.4375 15.0625 2.4375 15.0625 -0.5 15.25 C-3.5625 15.0625 -3.5625 15.0625 -5.5625 13.0625 C-5.29736085 10.72043749 -4.95637788 8.38637947 -4.5625 6.0625 C-4.5625 5.11375 -4.5625 4.165 -4.5625 3.1875 C-4.5625 -0.47008183 -3.76050601 0.06597379 0 0 Z " fill="#4A4A4A" transform="translate(132.5625,28.9375)"/>
<path d="M0 0 C1.670625 0.061875 1.670625 0.061875 3.375 0.125 C2.5 7 2.5 7 1.375 8.125 C-0.29117115 8.16563832 -1.95888095 8.167721 -3.625 8.125 C-3.625 8.785 -3.625 9.445 -3.625 10.125 C-1.645 10.125 0.335 10.125 2.375 10.125 C2.705 11.445 3.035 12.765 3.375 14.125 C0.14708445 16.2769437 -0.90900809 16.32586443 -4.625 16.125 C-6.59195476 12.87195944 -6.80067936 10.75269961 -6.375 7 C-6.28734375 6.13117187 -6.1996875 5.26234375 -6.109375 4.3671875 C-5.24331708 0.35817746 -4.01171032 0.13833484 0 0 Z " fill="#575757" transform="translate(166.625,31.875)"/>
<path d="M0 0 C6.93359375 -0.09765625 6.93359375 -0.09765625 9 0 C10 1 10 1 10.25 4.375 C10 8 10 8 8.75 9.9375 C7 11 7 11 3 11 C3 12.32 3 13.64 3 15 C2.01 15 1.02 15 0 15 C0 10.05 0 5.1 0 0 Z " fill="#656565" transform="translate(50,33)"/>
<path d="M0 0 C2.29225435 0.11371497 4.58382388 0.24130964 6.875 0.375 C8.15117188 0.44460937 9.42734375 0.51421875 10.7421875 0.5859375 C14 1 14 1 16 3 C16.1953125 5.1640625 16.1953125 5.1640625 16.125 7.625 C16.10695313 8.44226562 16.08890625 9.25953125 16.0703125 10.1015625 C16.04710938 10.72804688 16.02390625 11.35453125 16 12 C15.01 12 14.02 12 13 12 C13 9.03 13 6.06 13 3 C11.68 3 10.36 3 9 3 C9 5.97 9 8.94 9 12 C8.01 12 7.02 12 6 12 C6 9.03 6 6.06 6 3 C4.68 3 3.36 3 2 3 C2 5.97 2 8.94 2 12 C1.34 12 0.68 12 0 12 C0 8.04 0 4.08 0 0 Z " fill="#676767" transform="translate(75,32)"/>
<path d="M0 0 C2.29225435 0.11371497 4.58382388 0.24130964 6.875 0.375 C8.15117187 0.44460937 9.42734375 0.51421875 10.7421875 0.5859375 C14 1 14 1 16 3 C16.1953125 5.1640625 16.1953125 5.1640625 16.125 7.625 C16.10695312 8.44226562 16.08890625 9.25953125 16.0703125 10.1015625 C16.04710937 10.72804688 16.02390625 11.35453125 16 12 C15.01 12 14.02 12 13 12 C13 9.03 13 6.06 13 3 C11.68 3 10.36 3 9 3 C9 5.97 9 8.94 9 12 C8.01 12 7.02 12 6 12 C6 8.7 6 5.4 6 2 C5.01 2.33 4.02 2.66 3 3 C2.67 5.97 2.34 8.94 2 12 C1.34 12 0.68 12 0 12 C0 8.04 0 4.08 0 0 Z " fill="#767676" transform="translate(173,32)"/>
<path d="M0 0 C0.99 0.103125 1.98 0.20625 3 0.3125 C5.56687367 4.1628105 4.83288724 5.89819763 4 10.3125 C1.69 10.6425 -0.62 10.9725 -3 11.3125 C-5.30163882 7.86004176 -5.34490322 6.36511287 -5 2.3125 C-3 0.3125 -3 0.3125 0 0 Z " fill="#E7E7E7" transform="translate(225,32.6875)"/>
<path d="M0 0 C2.47923801 -0.02685095 4.9581884 -0.04676547 7.4375 -0.0625 C8.14455078 -0.07087891 8.85160156 -0.07925781 9.58007812 -0.08789062 C11.38693559 -0.09653588 13.19387603 -0.05220011 15 0 C16 1 16 1 16.09765625 3.28515625 C16.08605469 4.20167969 16.07445312 5.11820313 16.0625 6.0625 C16.05347656 6.98160156 16.04445313 7.90070312 16.03515625 8.84765625 C16.02355469 9.55792969 16.01195312 10.26820312 16 11 C15.34 11 14.68 11 14 11 C14 8.03 14 5.06 14 2 C12.68 2.33 11.36 2.66 10 3 C9.67 5.64 9.34 8.28 9 11 C8.34 11 7.68 11 7 11 C7 8.03 7 5.06 7 2 C5.35 2 3.7 2 2 2 C2 4.97 2 7.94 2 11 C1.34 11 0.68 11 0 11 C0 7.37 0 3.74 0 0 Z " fill="#4C4C4C" transform="translate(243,33)"/>
<path d="M0 0 C2 2 2 2 2.1875 5 C2 8 2 8 1 10 C0.01 10 -0.98 10 -2 10 C-1.67 7.36 -1.34 4.72 -1 2 C-3.31 2.66 -5.62 3.32 -8 4 C-8.33 6.64 -8.66 9.28 -9 12 C-8.4225 12.144375 -7.845 12.28875 -7.25 12.4375 C-5.16666667 12.95833333 -3.08333333 13.47916667 -1 14 C-1.33 14.66 -1.66 15.32 -2 16 C-8.75 15.25 -8.75 15.25 -11 13 C-11.30078125 10.72265625 -11.30078125 10.72265625 -11.3125 8.0625 C-11.32925781 7.18722656 -11.34601563 6.31195313 -11.36328125 5.41015625 C-11 3 -11 3 -9.734375 1.203125 C-6.57836621 -0.98617839 -3.74590232 -0.29729383 0 0 Z " fill="#DDDDDD" transform="translate(154,30)"/>
<path d="M0 0 C2.33294775 -0.04241723 4.66702567 -0.04092937 7 0 C8 1 8 1 8.09765625 3.28515625 C8.08605469 4.20167969 8.07445312 5.11820313 8.0625 6.0625 C8.05347656 6.98160156 8.04445313 7.90070312 8.03515625 8.84765625 C8.02355469 9.55792969 8.01195312 10.26820312 8 11 C1.84765625 11.09765625 1.84765625 11.09765625 0 11 C-1 10 -1 10 -1.0625 7.4375 C-1.041875 6.633125 -1.02125 5.82875 -1 5 C2.465 4.505 2.465 4.505 6 4 C5.67 3.34 5.34 2.68 5 2 C3.35 2 1.7 2 0 2 C0 1.34 0 0.68 0 0 Z " fill="#8A8A8A" transform="translate(14,33)"/>
<path d="M0 0 C2.33294775 -0.04241723 4.66702567 -0.04092937 7 0 C8 1 8 1 8.09765625 3.28515625 C8.08605469 4.20167969 8.07445312 5.11820313 8.0625 6.0625 C8.05347656 6.98160156 8.04445312 7.90070312 8.03515625 8.84765625 C8.02355469 9.55792969 8.01195312 10.26820312 8 11 C4.625 11.125 4.625 11.125 1 11 C0.34 10.34 -0.32 9.68 -1 9 C-0.46428571 5.46428571 -0.46428571 5.46428571 1 4 C2.66617115 3.95936168 4.33388095 3.957279 6 4 C5.67 3.34 5.34 2.68 5 2 C3.35 2 1.7 2 0 2 C0 1.34 0 0.68 0 0 Z " fill="#505050" transform="translate(192,33)"/>
<path d="M0 0 C2.33294775 -0.04241723 4.66702567 -0.04092937 7 0 C8 1 8 1 8.09765625 3.28515625 C8.08605469 4.20167969 8.07445313 5.11820313 8.0625 6.0625 C8.05347656 6.98160156 8.04445313 7.90070312 8.03515625 8.84765625 C8.02355469 9.55792969 8.01195313 10.26820312 8 11 C1.25 11.125 1.25 11.125 -1 10 C-0.125 5.125 -0.125 5.125 1 4 C2.66617115 3.95936168 4.33388095 3.957279 6 4 C5.67 3.34 5.34 2.68 5 2 C3.35 2 1.7 2 0 2 C0 1.34 0 0.68 0 0 Z " fill="#595959" transform="translate(94,33)"/>
<path d="M0 0 C0.94875 0.04125 1.8975 0.0825 2.875 0.125 C2.875 3.095 2.875 6.065 2.875 9.125 C0.235 9.455 -2.405 9.785 -5.125 10.125 C-5.3203125 4.0703125 -5.3203125 4.0703125 -5.125 2.125 C-3.125 0.125 -3.125 0.125 0 0 Z " fill="#616161" transform="translate(150.125,31.875)"/>
<path d="M0 0 C1.32 0.33 2.64 0.66 4 1 C4 4.3 4 7.6 4 11 C2.34385343 11.38218767 0.67542976 11.71395102 -1 12 C-2.58894072 10.41105928 -2.16998411 8.75198576 -2.1875 6.5625 C-2.20167969 5.75941406 -2.21585937 4.95632812 -2.23046875 4.12890625 C-2 2 -2 2 0 0 Z " fill="#E9E9E9" transform="translate(119,30)"/>
<path d="M0 0 C7.75 -0.125 7.75 -0.125 10 1 C10 4.3 10 7.6 10 11 C9.01 11 8.02 11 7 11 C6.67 8.03 6.34 5.06 6 2 C5.01 2.33 4.02 2.66 3 3 C2.67 5.64 2.34 8.28 2 11 C1.34 11 0.68 11 0 11 C0 7.37 0 3.74 0 0 Z " fill="#656565" transform="translate(25,33)"/>
<path d="M0 0 C0.99 0 1.98 0 3 0 C3 3.63 3 7.26 3 11 C2.34 11 1.68 11 1 11 C1 11.99 1 12.98 1 14 C0.34 13.67 -0.32 13.34 -1 13 C-1 12.01 -1 11.02 -1 10 C-3.97 9.505 -3.97 9.505 -7 9 C-7 8.34 -7 7.68 -7 7 C-5.35 6.67 -3.7 6.34 -2 6 C-1.34 4.02 -0.68 2.04 0 0 Z " fill="#DEDEDE" transform="translate(170,33)"/>
<path d="M0 0 C0.66 0 1.32 0 2 0 C2.33 2.64 2.66 5.28 3 8 C3.99 8 4.98 8 6 8 C6.33 5.36 6.66 2.72 7 0 C7.66 0 8.32 0 9 0 C9 3.63 9 7.26 9 11 C6.36 11 3.72 11 1 11 C-0.20272819 8.59454362 -0.10071472 7.05003047 -0.0625 4.375 C-0.05347656 3.55773438 -0.04445312 2.74046875 -0.03515625 1.8984375 C-0.02355469 1.27195313 -0.01195312 0.64546875 0 0 Z " fill="#4E4E4E" transform="translate(38,33)"/>
<path d="M0 0 C3 1 3 1 4.1875 3.0625 C4.455625 3.701875 4.72375 4.34125 5 5 C5.66 3.35 6.32 1.7 7 0 C7.66 0 8.32 0 9 0 C8.44894091 3.9492568 7.61064629 7.34920174 6 11 C5.01 11 4.02 11 3 11 C2.49632243 9.54293274 1.99717444 8.08429904 1.5 6.625 C1.2215625 5.81289063 0.943125 5.00078125 0.65625 4.1640625 C0 2 0 2 0 0 Z " fill="#5C5C5C" transform="translate(104,33)"/>
<path d="M0 0 C2.33294775 -0.04241723 4.66702567 -0.04092937 7 0 C8 1 8 1 8.09765625 3.06640625 C8.08605469 3.89011719 8.07445313 4.71382812 8.0625 5.5625 C8.05347656 6.38878906 8.04445313 7.21507812 8.03515625 8.06640625 C8.02355469 8.70449219 8.01195313 9.34257813 8 10 C7.34 10 6.68 10 6 10 C6 8.68 6 7.36 6 6 C4.68 6 3.36 6 2 6 C2 7.32 2 8.64 2 10 C1.34 10 0.68 10 0 10 C-0.042721 8.33388095 -0.04063832 6.66617115 0 5 C1 4 1 4 3.5625 3.9375 C4.7690625 3.9684375 4.7690625 3.9684375 6 4 C6 3.01 6 2.02 6 1 C4.02 1.33 2.04 1.66 0 2 C0 1.34 0 0.68 0 0 Z " fill="#505050" transform="translate(63,33)"/>
<path d="M0 0 C3.49186021 -0.20145347 6.19917389 -0.34907805 9.4375 1.0625 C11 3 11 3 11.4375 6.4375 C10.99490804 10.04146306 10.46704919 11.43015709 8 14 C7.01 13.67 6.02 13.34 5 13 C5.99 12.67 6.98 12.34 8 12 C8.020625 10.700625 8.04125 9.40125 8.0625 8.0625 C8.07410156 7.33160156 8.08570313 6.60070313 8.09765625 5.84765625 C8.20561184 3.98267859 8.20561184 3.98267859 7 3 C5.65252916 2.76924918 4.29622435 2.58846937 2.9375 2.4375 C1.638125 2.293125 0.33875 2.14875 -1 2 C-0.67 1.34 -0.34 0.68 0 0 Z " fill="#626262" transform="translate(147,28)"/>
<path d="M0 0 C0.94875 0.04125 1.8975 0.0825 2.875 0.125 C2.875 0.785 2.875 1.445 2.875 2.125 C0.895 2.125 -1.085 2.125 -3.125 2.125 C-2.795 4.105 -2.465 6.085 -2.125 8.125 C-0.475 8.125 1.175 8.125 2.875 8.125 C2.545 9.115 2.215 10.105 1.875 11.125 C-0.5 11.3125 -0.5 11.3125 -3.125 11.125 C-5.42663882 7.67254176 -5.46990322 6.17761287 -5.125 2.125 C-3.125 0.125 -3.125 0.125 0 0 Z " fill="#585858" transform="translate(225.125,32.875)"/>
<path d="M0 0 C6.875 0.875 6.875 0.875 8 2 C8.07179964 3.51928038 8.08392007 5.04167482 8.0625 6.5625 C8.05347656 7.38878906 8.04445312 8.21507812 8.03515625 9.06640625 C8.02355469 9.70449219 8.01195312 10.34257813 8 11 C7.67 11 7.34 11 7 11 C6.67 8.36 6.34 5.72 6 3 C5.01 3 4.02 3 3 3 C2.67 5.97 2.34 8.94 2 12 C1.34 12 0.68 12 0 12 C0 8.04 0 4.08 0 0 Z " fill="#494949" transform="translate(173,32)"/>
<path d="M0 0 C1.66611905 -0.042721 3.33382885 -0.04063832 5 0 C6 1 6 1 6.0625 3.5625 C6.041875 4.366875 6.02125 5.17125 6 6 C4.34385343 6.38218767 2.67542976 6.71395102 1 7 C0 6 0 6 -0.0625 2.9375 C-0.041875 1.968125 -0.02125 0.99875 0 0 Z " fill="#EBEBEB" transform="translate(232,35)"/>
<path d="M0 0 C2.475 0.99 2.475 0.99 5 2 C4.67 3.65 4.34 5.3 4 7 C1.03 6.505 1.03 6.505 -2 6 C-1.125 1.125 -1.125 1.125 0 0 Z " fill="#8F8F8F" transform="translate(95,37)"/>
<path d="M0 0 C2.875 -0.125 2.875 -0.125 6 0 C8 2 8 2 8.1875 5 C8 8 8 8 7 10 C6.01 10 5.02 10 4 10 C4.33 7.36 4.66 4.72 5 2 C3.35 1.67 1.7 1.34 0 1 C0 0.67 0 0.34 0 0 Z " fill="#DFDFDF" transform="translate(148,30)"/>
<path d="M0 0 C0.33 0 0.66 0 1 0 C1 3.3 1 6.6 1 10 C-1.31 10 -3.62 10 -6 10 C-6 8.35 -6 6.7 -6 5 C-4.35 5 -2.7 5 -1 5 C-0.67 3.35 -0.34 1.7 0 0 Z " fill="#999999" transform="translate(199,34)"/>
<path d="M0 0 C1.65 0 3.3 0 5 0 C5 1.98 5 3.96 5 6 C3.0625 6.5625 3.0625 6.5625 1 7 C0 6 0 6 -0.0625 2.9375 C-0.041875 1.968125 -0.02125 0.99875 0 0 Z " fill="#ECECEC" transform="translate(53,35)"/>
<path d="M0 0 C2.33294775 -0.04241723 4.66702567 -0.04092937 7 0 C8 1 8 1 8.09765625 3.28515625 C8.08605469 4.20167969 8.07445312 5.11820313 8.0625 6.0625 C8.05347656 6.98160156 8.04445313 7.90070312 8.03515625 8.84765625 C8.02355469 9.55792969 8.01195312 10.26820312 8 11 C6.68 10.34 5.36 9.68 4 9 C4.33 8.67 4.66 8.34 5 8 C5.04080783 6.00041636 5.04254356 3.99954746 5 2 C3.35 2 1.7 2 0 2 C0 1.34 0 0.68 0 0 Z " fill="#5B5B5B" transform="translate(14,33)"/>
<path d="M0 0 C-0.33 1.32 -0.66 2.64 -1 4 C-2.65 4 -4.3 4 -6 4 C-6.66 2.68 -7.32 1.36 -8 0 C-4.71023192 -1.09658936 -3.28696233 -0.79953138 0 0 Z " fill="#989898" transform="translate(168,44)"/>
<path d="M0 0 C0.33 0 0.66 0 1 0 C1.33 2.64 1.66 5.28 2 8 C3.98 8 5.96 8 8 8 C8.33 9.32 8.66 10.64 9 12 C8.01 12 7.02 12 6 12 C6 11.34 6 10.68 6 10 C4.02 10 2.04 10 0 10 C0 6.7 0 3.4 0 0 Z " fill="#4E4E4E" transform="translate(161,34)"/>
<path d="M0 0 C1.98 0.66 3.96 1.32 6 2 C4.68 2.33 3.36 2.66 2 3 C2 5.97 2 8.94 2 12 C1.34 12 0.68 12 0 12 C0 8.04 0 4.08 0 0 Z " fill="#616161" transform="translate(75,32)"/>
<path d="M0 0 C2.97 0.495 2.97 0.495 6 1 C4.68 1.33 3.36 1.66 2 2 C2 4.97 2 7.94 2 11 C1.34 11 0.68 11 0 11 C0 7.37 0 3.74 0 0 Z " fill="#575757" transform="translate(243,33)"/>
<path d="M0 0 C0.66 0.99 1.32 1.98 2 3 C1.67 3.99 1.34 4.98 1 6 C3.475 6.99 3.475 6.99 6 8 C6 8.33 6 8.66 6 9 C3.125 9.125 3.125 9.125 0 9 C-0.66 8.34 -1.32 7.68 -2 7 C-1.6730244 4.38419521 -1.17960932 2.35921863 0 0 Z " fill="#636363" transform="translate(129,35)"/>
<path d="M0 0 C2.0625 0.4375 2.0625 0.4375 4 1 C4 2.32 4 3.64 4 5 C2.35 5 0.7 5 -1 5 C-1 1 -1 1 0 0 Z " fill="#E0E0E0" transform="translate(131,37)"/>
<path d="M0 0 C1.125 1.625 1.125 1.625 2 4 C1.125 7.25 1.125 7.25 0 10 C-0.66 10 -1.32 10 -2 10 C-2 7.03 -2 4.06 -2 1 C-1.34 0.67 -0.68 0.34 0 0 Z " fill="#DCDCDC" transform="translate(127,31)"/>
<path d="M0 0 C1.32 0 2.64 0 4 0 C4 1.32 4 2.64 4 4 C4.66 4.33 5.32 4.66 6 5 C3.69 5 1.38 5 -1 5 C-0.67 3.35 -0.34 1.7 0 0 Z " fill="#B0B0B0" transform="translate(65,39)"/>
<path d="M0 0 C1.32 0.66 2.64 1.32 4 2 C3.0409375 2.2784375 3.0409375 2.2784375 2.0625 2.5625 C-0.42126213 3.94246056 -0.42126213 3.94246056 -0.75 7.625 C-0.8325 8.73875 -0.915 9.8525 -1 11 C-1.33 11 -1.66 11 -2 11 C-2.96891192 5.62694301 -2.96891192 5.62694301 -3 3 C-1.5625 1 -1.5625 1 0 0 Z " fill="#D0D0D0" transform="translate(146,30)"/>
<path d="M0 0 C1.98 0.495 1.98 0.495 4 1 C3.67 2.32 3.34 3.64 3 5 C1.68 4.67 0.36 4.34 -1 4 C-0.67 2.68 -0.34 1.36 0 0 Z " fill="#D3D3D3" transform="translate(131,30)"/>
<path d="M0 0 C0.99 0.33 1.98 0.66 3 1 C3 3.31 3 5.62 3 8 C1.68 8.33 0.36 8.66 -1 9 C-0.67 6.03 -0.34 3.06 0 0 Z " fill="#D8D8D8" transform="translate(112,32)"/>
<path d="M0 0 C0.99 0 1.98 0 3 0 C3 1.65 3 3.3 3 5 C1.68 4.67 0.36 4.34 -1 4 C-0.67 2.68 -0.34 1.36 0 0 Z " fill="#DADADA" transform="translate(164,34)"/>
<path d="M0 0 C0.99 0 1.98 0 3 0 C3 1.65 3 3.3 3 5 C2.01 5.33 1.02 5.66 0 6 C0 4.02 0 2.04 0 0 Z " fill="#F0F0F0" transform="translate(147,34)"/>
<path d="M0 0 C0.33 0.66 0.66 1.32 1 2 C2.65 1.67 4.3 1.34 6 1 C6.33 1.99 6.66 2.98 7 4 C4.69 3.67 2.38 3.34 0 3 C0 2.01 0 1.02 0 0 Z " fill="#D9D9D9" transform="translate(13,33)"/>
</svg>
