<?xml version="1.0" encoding="UTF-8"?>
<svg version="1.1" xmlns="http://www.w3.org/2000/svg" width="215" height="69">
<path d="M0 0 C70.95 0 141.9 0 215 0 C215 22.77 215 45.54 215 69 C144.05 69 73.1 69 0 69 C0 46.23 0 23.46 0 0 Z " fill="#FDFDFD" transform="translate(0,0)"/>
<path d="M0 0 C3.38879801 0.3388798 4.66384629 1.04066581 7.125 3.3125 C7.125 2.3225 7.125 1.3325 7.125 0.3125 C13.27734375 0.21484375 13.27734375 0.21484375 15.125 0.3125 C15.455 0.6425 15.785 0.9725 16.125 1.3125 C15.74556512 5.41039669 15.43194043 7.85208935 13.125 11.3125 C12.465 11.3125 11.805 11.3125 11.125 11.3125 C11.125 11.9725 11.125 12.6325 11.125 13.3125 C13.105 13.3125 15.085 13.3125 17.125 13.3125 C17.125 13.9725 17.125 14.6325 17.125 15.3125 C13.825 15.3125 10.525 15.3125 7.125 15.3125 C6.795 14.3225 6.465 13.3325 6.125 12.3125 C5.568125 12.8075 5.01125 13.3025 4.4375 13.8125 C1.7036377 15.58581609 0.32334873 15.81750243 -2.875 15.3125 C-5.04221782 12.06167327 -5.14721018 11.02017847 -5.125 7.25 C-5.13015625 6.37214844 -5.1353125 5.49429687 -5.140625 4.58984375 C-4.71899283 0.97496793 -3.51723294 0.38230793 0 0 Z " fill="#4A4A4A" transform="translate(75.875,25.6875)"/>
<path d="M0 0 C2.4375 0.8125 2.4375 0.8125 4.4375 2.8125 C4.73828125 5.08984375 4.73828125 5.08984375 4.75 7.75 C4.76675781 8.62527344 4.78351563 9.50054687 4.80078125 10.40234375 C4.4375 12.8125 4.4375 12.8125 3.078125 14.60546875 C1.4375 15.8125 1.4375 15.8125 -1.125 16.1875 C-1.929375 16.06375 -2.73375 15.94 -3.5625 15.8125 C-5.70803377 12.59419935 -5.85833868 11.54463493 -5.875 7.8125 C-5.89175781 6.94625 -5.90851563 6.08 -5.92578125 5.1875 C-5.5625 2.8125 -5.5625 2.8125 -4.203125 0.98828125 C-2.5625 -0.1875 -2.5625 -0.1875 0 0 Z " fill="#5C5C5C" transform="translate(161.5625,25.1875)"/>
<path d="M0 0 C6.15234375 -0.09765625 6.15234375 -0.09765625 8 0 C8.33 0.33 8.66 0.66 9 1 C8.62056512 5.09789669 8.30694043 7.53958935 6 11 C5.34 11 4.68 11 4 11 C4 11.66 4 12.32 4 13 C5.98 13 7.96 13 10 13 C10 13.66 10 14.32 10 15 C8.37581255 15.08090971 6.75048255 15.13914995 5.125 15.1875 C3.76761719 15.23970703 3.76761719 15.23970703 2.3828125 15.29296875 C1.20332031 15.14794922 1.20332031 15.14794922 0 15 C-2.13586678 11.79619983 -2.23132175 10.98060033 -2.125 7.3125 C-2.10695313 6.50425781 -2.08890625 5.69601563 -2.0703125 4.86328125 C-2.04710938 4.24839844 -2.02390625 3.63351563 -2 3 C-1.34 3 -0.68 3 0 3 C0 2.01 0 1.02 0 0 Z " fill="#EBEBEB" transform="translate(83,26)"/>
<path d="M0 0 C2.875 -0.125 2.875 -0.125 6 0 C8.61173635 2.61173635 8.2981789 3.87198888 8.3125 7.5 C8.32925781 8.4796875 8.34601563 9.459375 8.36328125 10.46875 C8.18345703 11.72171875 8.18345703 11.72171875 8 13 C5 15 5 15 2.4375 14.8125 C0 14 0 14 -2 11 C-2.30891093 6.7524747 -2.33046701 3.6413547 0 0 Z " fill="#4F4F4F" transform="translate(109,26)"/>
<path d="M0 0 C3 0.25 3 0.25 5 2.25 C5.3359375 4.52734375 5.3359375 4.52734375 5.375 7.1875 C5.40335938 8.06277344 5.43171875 8.93804687 5.4609375 9.83984375 C5 12.25 5 12.25 3.1484375 14.0859375 C1 15.25 1 15.25 -1.75 14.9375 C-2.4925 14.710625 -3.235 14.48375 -4 14.25 C-4 13.92 -4 13.59 -4 13.25 C-2.35 12.92 -0.7 12.59 1 12.25 C1.33 11.26 1.66 10.27 2 9.25 C1.21625 9.29125 0.4325 9.3325 -0.375 9.375 C-3 9.25 -3 9.25 -5 7.25 C-5.25 4.75 -5.25 4.75 -5 2.25 C-3 0.25 -3 0.25 0 0 Z " fill="#696969" transform="translate(34,25.75)"/>
<path d="M0 0 C1.65 0 3.3 0 5 0 C5 3.3 5 6.6 5 10 C3.34385343 10.38218767 1.67542976 10.71395102 0 11 C-1 10 -1 10 -1.1328125 7.96875 C-1.13023438 7.1540625 -1.12765625 6.339375 -1.125 5.5 C-1.12757812 4.6853125 -1.13015625 3.870625 -1.1328125 3.03125 C-1 1 -1 1 0 0 Z " fill="#EBEBEB" transform="translate(74,28)"/>
<path d="M0 0 C1.32 0 2.64 0 4 0 C4 4.29 4 8.58 4 13 C4.66 13 5.32 13 6 13 C6 13.66 6 14.32 6 15 C3.36 15 0.72 15 -2 15 C-2 14.34 -2 13.68 -2 13 C-1.01 13 -0.02 13 1 13 C1 9.7 1 6.4 1 3 C0.01 3.33 -0.98 3.66 -2 4 C-1.34 2.68 -0.68 1.36 0 0 Z " fill="#626262" transform="translate(147,26)"/>
<path d="M0 0 C2.875 -0.125 2.875 -0.125 6 0 C6.66 0.66 7.32 1.32 8 2 C7.76236269 6.39629018 5.85856441 8.77258856 3 12 C4.65 12.33 6.3 12.66 8 13 C8 13.66 8 14.32 8 15 C5.03 15 2.06 15 -1 15 C-0.04476793 12.35474197 0.85699307 10.18876915 2.5625 7.9375 C4.05703799 5.92312271 4.56338212 4.44506011 5 2 C3.35 2 1.7 2 0 2 C0 1.34 0 0.68 0 0 Z " fill="#595959" transform="translate(133,26)"/>
<path d="M0 0 C2.33294775 -0.04241723 4.66702567 -0.04092937 7 0 C7.33 0.33 7.66 0.66 8 1 C7.62056512 5.09789669 7.30694043 7.53958935 5 11 C4.34 11 3.68 11 3 11 C3 11.66 3 12.32 3 13 C4.98 13 6.96 13 9 13 C9 13.66 9 14.32 9 15 C5.7 15 2.4 15 -1 15 C1 11 1 11 3.0625 8.5 C4.86644927 6.17232353 5.57691542 4.8558209 6 2 C4.02 2 2.04 2 0 2 C0 1.34 0 0.68 0 0 Z " fill="#565656" transform="translate(84,26)"/>
<path d="M0 0 C1.67542976 0.28604898 3.34385343 0.61781233 5 1 C5 3.97 5 6.94 5 10 C3.35 10.33 1.7 10.66 0 11 C-1.62651522 7.74696956 -1.11453156 4.60774398 -1 1 C-0.67 0.67 -0.34 0.34 0 0 Z " fill="#EDEDED" transform="translate(159,28)"/>
<path d="M0 0 C2.64 0 5.28 0 8 0 C8 0.33 8 0.66 8 1 C6.02 1 4.04 1 2 1 C2 2.32 2 3.64 2 5 C2.78375 5.144375 3.5675 5.28875 4.375 5.4375 C7 6 7 6 9 7 C9.22223194 9.74086056 9.34781139 11.43963721 7.875 13.8125 C5.22464043 15.49106106 3.06753576 15.20450238 0 15 C-0.33 14.01 -0.66 13.02 -1 12 C1.31 12 3.62 12 6 12 C6 10.68 6 9.36 6 8 C3.03 7.505 3.03 7.505 0 7 C0 4.69 0 2.38 0 0 Z " fill="#565656" transform="translate(96,26)"/>
<path d="M0 0 C0 4.29 0 8.58 0 13 C0.99 13 1.98 13 3 13 C3 13.66 3 14.32 3 15 C0.03 15 -2.94 15 -6 15 C-6 14.34 -6 13.68 -6 13 C-4.68 13 -3.36 13 -2 13 C-2.33 9.7 -2.66 6.4 -3 3 C-3.99 3.33 -4.98 3.66 -6 4 C-5.67 3.01 -5.34 2.02 -5 1 C-3 0 -3 0 0 0 Z " fill="#575757" transform="translate(48,26)"/>
<path d="M0 0 C1.65 0 3.3 0 5 0 C5 3.3 5 6.6 5 10 C3.68 10.33 2.36 10.66 1 11 C0 10 0 10 -0.09765625 7.71484375 C-0.08605469 6.79832031 -0.07445313 5.88179687 -0.0625 4.9375 C-0.05347656 4.01839844 -0.04445313 3.09929688 -0.03515625 2.15234375 C-0.02355469 1.44207031 -0.01195313 0.73179688 0 0 Z " fill="#F6F6F6" transform="translate(110,28)"/>
<path d="M0 0 C3.3 0 6.6 0 10 0 C6.85714286 10.71428571 6.85714286 10.71428571 5 15 C4.01 15 3.02 15 2 15 C2.65419099 9.93001981 4.8546409 5.58009223 7 1 C4.69 1 2.38 1 0 1 C0 0.67 0 0.34 0 0 Z " fill="#555555" transform="translate(59,26)"/>
<path d="M0 0 C2.97 0 5.94 0 9 0 C9.30017023 4.16486198 8.45324946 6.65015727 6.5 10.3125 C6.0359375 11.19550781 5.571875 12.07851563 5.09375 12.98828125 C4.7328125 13.65214844 4.371875 14.31601562 4 15 C3.34 15 2.68 15 2 15 C2.53484401 9.65155992 4.46690767 5.64203897 7 1 C4.69 1 2.38 1 0 1 C0 0.67 0 0.34 0 0 Z " fill="#4E4E4E" transform="translate(120,26)"/>
<path d="M0 0 C2.97 0 5.94 0 9 0 C8.60079865 1.75406653 8.17984334 3.50318982 7.75 5.25 C7.51796875 6.22453125 7.2859375 7.1990625 7.046875 8.203125 C5.88200734 11.31523411 4.48669455 12.84212456 2 15 C2.53484401 9.65155992 4.46690767 5.64203897 7 1 C4.69 1 2.38 1 0 1 C0 0.67 0 0.34 0 0 Z " fill="#4D4D4D" transform="translate(169,26)"/>
<path d="M0 0 C2.9375 0.1875 2.9375 0.1875 3.9375 1.1875 C4.00955511 2.87358966 4.02136068 4.56250659 4 6.25 C3.99097656 7.16910156 3.98195313 8.08820312 3.97265625 9.03515625 C3.96105469 9.74542969 3.94945312 10.45570312 3.9375 11.1875 C2.35591038 8.17862219 1.49804661 5.55077963 0.9375 2.1875 C-0.0525 2.1875 -1.0425 2.1875 -2.0625 2.1875 C-2.0625 4.1675 -2.0625 6.1475 -2.0625 8.1875 C-3.0525 7.8575 -4.0425 7.5275 -5.0625 7.1875 C-5.1875 4.8125 -5.1875 4.8125 -5.0625 2.1875 C-3.0625 0.1875 -3.0625 0.1875 0 0 Z " fill="#3F3F3F" transform="translate(34.0625,25.8125)"/>
<path d="M0 0 C2.0625 0.4375 2.0625 0.4375 4 1 C4.33 2.65 4.66 4.3 5 6 C3.02 6 1.04 6 -1 6 C-1.042721 4.33388095 -1.04063832 2.66617115 -1 1 C-0.67 0.67 -0.34 0.34 0 0 Z " fill="#DCDCDC" transform="translate(32,27)"/>
<path d="M0 0 C0.33 0 0.66 0 1 0 C1.1953125 1.98567708 1.390625 3.97135417 1.5859375 5.95703125 C1.92665391 8.29988142 1.92665391 8.29988142 4 11 C2.0625 10.625 2.0625 10.625 0 10 C-1.49106457 7.01787087 -1.11941467 4.28390342 -1 1 C-0.67 0.67 -0.34 0.34 0 0 Z " fill="#444444" transform="translate(108,29)"/>
<path d="M0 0 C2.64 0.33 5.28 0.66 8 1 C8 1.66 8 2.32 8 3 C5.03 3 2.06 3 -1 3 C-0.67 2.01 -0.34 1.02 0 0 Z " fill="#525252" transform="translate(133,38)"/>
<path d="M0 0 C4.875 0.875 4.875 0.875 6 2 C6.14115161 4.67058851 6.04247107 7.32432238 6 10 C4.35173889 7.03312999 3.55728913 4.34373475 3 1 C2.01 0.67 1.02 0.34 0 0 Z " fill="#414141" transform="translate(160,26)"/>
<path d="M0 0 C1.67542976 0.28604898 3.34385343 0.61781233 5 1 C3.68 1.33 2.36 1.66 1 2 C1 4.97 1 7.94 1 11 C0.67 11 0.34 11 0 11 C-0.19406478 9.35492782 -0.38007935 7.70890406 -0.5625 6.0625 C-0.66691406 5.14597656 -0.77132812 4.22945312 -0.87890625 3.28515625 C-0.91886719 2.53105469 -0.95882812 1.77695312 -1 1 C-0.67 0.67 -0.34 0.34 0 0 Z " fill="#878787" transform="translate(109,26)"/>
</svg>
